<?xml version="1.0" encoding="utf-8"?><svg viewBox="0 0 180 37" xmlns="http://www.w3.org/2000/svg" xmlns:xlink="http://www.w3.org/1999/xlink"><style>:root>svg{display:none}:root>svg:target{display:block}</style><svg fill="none" viewBox="0 0 9 6" id="arrow-down" xmlns="http://www.w3.org/2000/svg"><path d="M1 .712 4.238 3.95 7.475.712" stroke="#303030" stroke-width="2"/></svg><svg fill="none" viewBox="0 0 17 8" id="arrow-left" xmlns="http://www.w3.org/2000/svg"><path d="M.646 4.354a.5.5 0 0 1 0-.708L3.828.464a.5.5 0 1 1 .708.708L1.707 4l2.829 2.828a.5.5 0 1 1-.708.708L.646 4.354ZM17 4.5H1v-1h16v1Z" fill="#000"/></svg><svg fill="none" viewBox="0 0 17 8" id="arrow-right" xmlns="http://www.w3.org/2000/svg"><path d="M16.354 4.354a.5.5 0 0 0 0-.708L13.172.464a.5.5 0 1 0-.708.708L15.293 4l-2.829 2.828a.5.5 0 1 0 .708.708l3.182-3.182ZM0 4.5h16v-1H0v1Z" fill="#000"/></svg><svg fill="none" viewBox="0 0 10 16" id="arrow-small" xmlns="http://www.w3.org/2000/svg"><path d="m1.071 1 7.071 7.071-7.071 7.071" stroke="#303030" stroke-width="2"/></svg><svg fill="none" viewBox="0 0 16 17" id="bag" xmlns="http://www.w3.org/2000/svg"><rect y="4" width="16" height="13" rx="1" fill="#fff"/><mask id="ea" fill="#fff"><rect y="4" width="16" height="13" rx="1"/></mask><rect y="4" width="16" height="13" rx="1" stroke="#303030" stroke-width="3.2" mask="url(#ea)"/><path d="M4 8V5a4 4 0 0 1 8 0v3" stroke="#303030" stroke-width="1.6"/></svg><svg fill="none" viewBox="0 0 13 15" id="chart" xmlns="http://www.w3.org/2000/svg"><path stroke="#303030" stroke-width="2.2" d="M1.1 8v7M6.1 0v15M11.1 3v12"/></svg><svg fill="none" viewBox="0 0 13 15" id="chart-fill" xmlns="http://www.w3.org/2000/svg"><path stroke="#C9C9C9" stroke-width="2.2" d="M1.1 8v7M6.1 0v15M11.1 3v12"/></svg><svg fill="none" viewBox="0 0 12 8" id="check" xmlns="http://www.w3.org/2000/svg"><path d="M4.3 7.9.567 4.167l.716-.717L4.3 6.467l6.4-6.4.717.716L4.3 7.9Z" fill="#000"/></svg><svg fill="none" viewBox="0 0 18 16" id="heart" xmlns="http://www.w3.org/2000/svg"><path d="M9 15.5c-.538-.477-1.145-.973-1.788-1.5h-.008c-2.262-1.85-4.827-3.943-5.959-6.452A6.185 6.185 0 0 1 .667 5 4.492 4.492 0 0 1 5.25.5a5.132 5.132 0 0 1 2.773.82c.364.235.692.52.977.847.286-.326.615-.61.977-.848A5.127 5.127 0 0 1 12.75.5 4.492 4.492 0 0 1 17.333 5a6.186 6.186 0 0 1-.578 2.552c-1.132 2.509-3.696 4.601-5.958 6.448l-.009.007c-.643.524-1.25 1.02-1.787 1.5L9 15.5ZM5.25 2.167a2.946 2.946 0 0 0-2.083.826A2.785 2.785 0 0 0 2.333 5c.01.642.155 1.275.427 1.857A10.262 10.262 0 0 0 4.89 9.75c.827.833 1.777 1.64 2.598 2.318l.691.566.146.12.675.554.01-.01.006-.004h.005l.007-.006H9.037l.015-.012.034-.028.006-.005.009-.006h.005l.007-.007.554-.454.145-.12c.234-.19.466-.38.693-.567.822-.678 1.772-1.484 2.598-2.322a10.25 10.25 0 0 0 2.131-2.892A4.531 4.531 0 0 0 15.667 5a2.786 2.786 0 0 0-.834-2 2.946 2.946 0 0 0-2.083-.833 3.323 3.323 0 0 0-2.492 1.092L9 4.71 7.742 3.26A3.323 3.323 0 0 0 5.25 2.167Z" fill="#303030"/></svg><svg fill="none" viewBox="0 0 20 18" id="heart-fill" xmlns="http://www.w3.org/2000/svg"><path d="M0 5.4A5.4 5.4 0 0 1 5.5 0 5.991 5.991 0 0 1 10 2a5.991 5.991 0 0 1 4.5-2A5.4 5.4 0 0 1 20 5.4c0 5.356-6.379 9.4-10 12.6C6.387 14.773 0 10.76 0 5.4Z" fill="#C9C9C9"/></svg><svg fill="none" viewBox="0 0 12 16" id="location" xmlns="http://www.w3.org/2000/svg"><path d="M6 0A5.801 5.801 0 0 0 .205 5.795c0 3.965 5.186 9.786 5.407 10.032.207.23.57.23.776 0 .221-.246 5.406-6.067 5.406-10.032C11.794 2.599 9.195 0 6 0Zm0 8.71a2.919 2.919 0 0 1-2.915-2.915A2.919 2.919 0 0 1 6 2.879a2.919 2.919 0 0 1 2.915 2.916A2.919 2.919 0 0 1 6 8.71Z" fill="#303030"/></svg><svg fill="none" viewBox="0 0 180 37" id="logo" xmlns="http://www.w3.org/2000/svg"><path d="M12.312 27.64c-2.325 0-4.363-.565-6.112-1.696-1.75-1.13-3.104-2.71-4.064-4.736C1.197 19.181.728 16.845.728 14.2c0-2.645.501-4.981 1.504-7.008 1.003-2.027 2.4-3.605 4.192-4.736C8.237 1.326 10.307.76 12.632.76c2.197 0 4.053.555 5.568 1.664L20.152.76h.672v7.936h-.672l-2.112-5.28c-1.536-1.28-3.339-1.92-5.408-1.92-1.493 0-2.837.384-4.032 1.152-1.173.768-2.101 1.888-2.784 3.36-.661 1.472-.992 3.221-.992 5.248v5.856c0 2.027.31 3.776.928 5.248.64 1.472 1.515 2.603 2.624 3.392 1.13.768 2.443 1.152 3.936 1.152 1.835 0 3.253-.565 4.256-1.696 1.024-1.13 1.536-2.645 1.536-4.544v-2.976l-2.976-.448v-.704h9.568v.704l-2.976.448v2.976c0 1.216-.33 2.357-.992 3.424-.661 1.045-1.696 1.899-3.104 2.56-1.408.661-3.179.992-5.312.992Zm22.07-.32c-1.535 0-2.933-.352-4.191-1.056-1.259-.725-2.262-1.739-3.008-3.04-.726-1.323-1.088-2.827-1.088-4.512 0-1.685.362-3.179 1.088-4.48.746-1.301 1.75-2.304 3.008-3.008 1.258-.725 2.656-1.088 4.192-1.088s2.933.363 4.192 1.088c1.258.704 2.25 1.707 2.976 3.008.746 1.301 1.12 2.795 1.12 4.48 0 1.685-.374 3.19-1.12 4.512-.726 1.301-1.718 2.315-2.976 3.04-1.259.704-2.656 1.056-4.192 1.056Zm0-.704c1.58 0 2.763-.576 3.553-1.728.81-1.152 1.216-2.677 1.216-4.576v-3.2c0-1.899-.406-3.413-1.216-4.544-.79-1.152-1.974-1.728-3.552-1.728-1.579 0-2.774.576-3.584 1.728-.79 1.13-1.184 2.645-1.184 4.544v3.2c0 1.899.394 3.424 1.184 4.576.81 1.152 2.005 1.728 3.584 1.728Zm10.29.384v-.64l2.4-.32V2.36l-2.4-.32V1.4h5.6v24.64l2.24.32V27h-7.84Zm17.54.32c-1.515 0-2.849-.352-4-1.056-1.153-.725-2.049-1.728-2.689-3.008-.64-1.301-.96-2.816-.96-4.544 0-1.728.32-3.232.96-4.512.64-1.301 1.536-2.304 2.688-3.008 1.153-.704 2.486-1.056 4-1.056 1.238 0 2.315.33 3.233.992.917.64 1.642 1.525 2.175 2.656V2.36l-2.24-.32V1.4h5.44v24.64l2.24.32V27h-5.44v-3.328c-.533 1.13-1.258 2.027-2.175 2.688-.918.64-1.995.96-3.233.96Zm.32-.8c.938 0 1.78-.267 2.528-.8a5.871 5.871 0 0 0 1.823-2.176c.47-.917.715-1.91.737-2.976v-3.68a6.536 6.536 0 0 0-.737-2.944c-.447-.917-1.055-1.643-1.823-2.176a4.133 4.133 0 0 0-2.529-.832c-2.965 0-4.447 2.059-4.447 6.176v3.2c0 4.139 1.482 6.208 4.447 6.208Zm14.963 9.824c-1.11 0-2.006-.277-2.688-.832-.683-.555-1.024-1.301-1.024-2.24 0-.64.181-1.163.544-1.568a1.915 1.915 0 0 1 1.408-.576c.405 0 .768.085 1.088.256.32.17.576.427.768.768-.32.448-.48.917-.48 1.408 0 .427.138.779.416 1.056.277.277.63.416 1.056.416.512 0 .95-.17 1.312-.512.384-.341.725-.939 1.024-1.792l1.92-5.504-7.424-15.808-2.144-.32v-.64h7.968v.64l-2.24.384 5.344 11.424 3.808-11.008-2.752-.8v-.64h5.76v.64l-2.176.8-7.168 20.832c-.448 1.259-.992 2.176-1.632 2.752-.619.576-1.515.864-2.688.864Z" fill="#E1A661"/><path d="M109.924 27.64c-1.984 0-3.936-.565-5.856-1.696l-2.72 1.376h-.704v-8.224h.704l2.752 5.952c1.771 1.259 3.797 1.888 6.08 1.888 1.877 0 3.424-.49 4.64-1.472 1.237-1.003 1.856-2.4 1.856-4.192 0-1.301-.395-2.325-1.184-3.072-.789-.768-2.069-1.376-3.84-1.824L106.34 15c-1.856-.49-3.253-1.323-4.192-2.496-.939-1.195-1.408-2.603-1.408-4.224 0-1.472.288-2.773.864-3.904a6.225 6.225 0 0 1 2.592-2.656c1.131-.64 2.475-.96 4.032-.96 1.941 0 3.68.33 5.216.992L115.78.76h.704v6.528h-.704l-2.304-4.672c-1.6-.768-3.339-1.152-5.216-1.152-1.856 0-3.317.48-4.384 1.44-1.067.939-1.6 2.187-1.6 3.744 0 1.152.373 2.059 1.12 2.72.768.661 1.888 1.184 3.36 1.568l5.728 1.504c1.856.47 3.232 1.28 4.128 2.432.917 1.13 1.376 2.859 1.376 5.184 0 2.368-.736 4.224-2.208 5.568-1.451 1.344-3.403 2.016-5.856 2.016Zm17.377-.32c-1.408 0-2.539-.352-3.392-1.056-.832-.704-1.248-1.824-1.248-3.36v-11.52l-2.272-.32v-.64h2.272V7.768l3.2-.8v3.456h4.16v.64l-4.16.32V22.84c0 2.261.81 3.392 2.432 3.392.341 0 .661-.053.96-.16.32-.107.565-.213.736-.32.192-.107.309-.181.352-.224l.416.512c-.96.853-2.112 1.28-3.456 1.28Zm12.301 0c-1.536 0-2.934-.352-4.192-1.056-1.259-.725-2.262-1.739-3.008-3.04-.726-1.323-1.088-2.827-1.088-4.512 0-1.685.362-3.179 1.088-4.48.746-1.301 1.749-2.304 3.008-3.008 1.258-.725 2.656-1.088 4.192-1.088s2.933.363 4.192 1.088c1.258.704 2.25 1.707 2.976 3.008.746 1.301 1.12 2.795 1.12 4.48 0 1.685-.374 3.19-1.12 4.512-.726 1.301-1.718 2.315-2.976 3.04-1.259.704-2.656 1.056-4.192 1.056Zm0-.704c1.578 0 2.762-.576 3.552-1.728.81-1.152 1.216-2.677 1.216-4.576v-3.2c0-1.899-.406-3.413-1.216-4.544-.79-1.152-1.974-1.728-3.552-1.728-1.579 0-2.774.576-3.584 1.728-.79 1.13-1.184 2.645-1.184 4.544v3.2c0 1.899.394 3.424 1.184 4.576.81 1.152 2.005 1.728 3.584 1.728Zm10.512-.256 2.24-.32V11.384l-2.24-.32v-.64h5.44v2.464c1.344-1.835 2.859-2.752 4.544-2.752.811 0 1.525.213 2.144.64.619.405.928.992.928 1.76 0 .555-.181 1.024-.544 1.408-.363.363-.843.544-1.44.544a2.032 2.032 0 0 1-1.664-.8c.235-.299.352-.619.352-.96 0-.363-.128-.65-.384-.864-.235-.235-.555-.352-.96-.352-.448 0-.907.213-1.376.64-.469.405-1.003 1.045-1.6 1.92V26.04l2.56.32V27h-8v-.64Zm22.804.96c-1.579 0-3.008-.352-4.288-1.056a7.997 7.997 0 0 1-3.04-3.04c-.747-1.301-1.12-2.805-1.12-4.512 0-1.707.362-3.2 1.088-4.48.746-1.301 1.738-2.304 2.976-3.008 1.258-.725 2.656-1.088 4.192-1.088 1.344 0 2.549.299 3.616.896a6.39 6.39 0 0 1 2.496 2.496c.597 1.045.906 2.25.928 3.616H167.99v3.168c0 1.877.416 3.403 1.248 4.576.853 1.152 2.08 1.728 3.68 1.728 1.472 0 2.773-.416 3.904-1.248 1.13-.832 1.824-1.91 2.08-3.232h.736c-.299 1.579-1.056 2.837-2.272 3.776-1.216.939-2.699 1.408-4.448 1.408Zm3.328-10.976c0-1.856-.288-3.232-.864-4.128-.576-.917-1.472-1.376-2.688-1.376-1.43 0-2.539.501-3.328 1.504-.79 1.003-1.238 2.336-1.344 4h8.224Z" fill="#303030"/></svg><svg fill="none" viewBox="0 0 16 16" id="phone" xmlns="http://www.w3.org/2000/svg"><path d="M15.565 11.742 13.332 9.51c-.798-.798-2.153-.479-2.472.558-.24.718-1.037 1.116-1.755.957-1.595-.399-3.748-2.472-4.147-4.147-.239-.718.24-1.515.957-1.754 1.037-.32 1.356-1.675.559-2.472L4.24.419c-.638-.559-1.595-.559-2.153 0L.573 1.934c-1.516 1.595.159 5.821 3.907 9.57 3.748 3.747 7.974 5.502 9.57 3.907l1.514-1.515c.559-.639.559-1.595 0-2.154Z" fill="#303030"/></svg><svg fill="none" viewBox="0 0 18 18" id="question" xmlns="http://www.w3.org/2000/svg"><circle cx="9" cy="9" r="9" fill="#F0F0F0"/><path d="M8.25 10.49h1.219v-.08c.017-.981.298-1.42 1.023-1.867.762-.46 1.231-1.108 1.231-2.067 0-1.385-1.048-2.323-2.612-2.323-1.436 0-2.587.84-2.642 2.374h1.295c.051-.903.695-1.3 1.347-1.3.724 0 1.312.482 1.312 1.236 0 .635-.396 1.082-.903 1.398-.793.486-1.261.967-1.27 2.548v.081Zm.643 2.591c.465 0 .853-.38.853-.852a.857.857 0 0 0-.853-.848.854.854 0 0 0-.852.848c0 .473.384.852.852.852Z" fill="#303030"/></svg><svg fill="none" viewBox="0 0 16 16" id="search" xmlns="http://www.w3.org/2000/svg"><path fill-rule="evenodd" clip-rule="evenodd" d="M11.2 6.5a4.7 4.7 0 1 1-9.4 0 4.7 4.7 0 0 1 9.4 0Zm-1.138 5.438a6.5 6.5 0 1 1 1.299-1.123l3.912 3.912L14 16l-4-4 .062-.062Z" fill="#303030"/></svg><svg fill="none" viewBox="0 0 16 18" id="share-fill" xmlns="http://www.w3.org/2000/svg"><path fill-rule="evenodd" clip-rule="evenodd" d="M9.667 3.583a2.917 2.917 0 1 1 .837 2.045l-4.276 2.59a2.92 2.92 0 0 1 .02 1.487l4.353 2.572a2.917 2.917 0 1 1-.848 1.434L5.398 11.14a2.917 2.917 0 1 1-.059-4.332l4.382-2.654a2.93 2.93 0 0 1-.055-.57Zm2.916-1.25a1.25 1.25 0 1 0 0 2.5 1.25 1.25 0 0 0 0-2.5ZM3.417 7.75a1.25 1.25 0 1 0 0 2.5 1.25 1.25 0 0 0 0-2.5Zm9.166 5.417a1.25 1.25 0 1 0 0 2.5 1.25 1.25 0 0 0 0-2.5Z" fill="#C9C9C9"/></svg><svg fill="none" viewBox="0 0 17 16" id="star" xmlns="http://www.w3.org/2000/svg"><path d="m8.5 1.264 1.839 4.27.117.273.296.028 4.63.429-3.493 3.069-.223.196.065.29 1.022 4.535-3.998-2.374-.255-.152-.255.152-3.998 2.374 1.022-4.536.065-.29-.223-.195-3.493-3.069 4.63-.43.296-.027.117-.272L8.5 1.265Z" stroke="#E1A661"/></svg><svg fill="none" viewBox="0 0 17 16" id="star-fill" xmlns="http://www.w3.org/2000/svg"><path d="m8.5 0 2.298 5.337 5.786.536-4.365 3.835 1.277 5.669L8.5 12.41l-4.996 2.967L4.78 9.708.416 5.873l5.786-.536L8.5 0Z" fill="#E1A661"/></svg><svg fill="none" viewBox="0 0 20 20" id="watch" xmlns="http://www.w3.org/2000/svg"><path fill-rule="evenodd" clip-rule="evenodd" d="M11.004 1.5a1 1 0 1 0-2 0v2.05c-.96.096-1.876.327-2.73.658l-.83-1.158A1 1 0 1 0 3.82 4.215l.639.892c-.531.325-1.024.686-1.473 1.07C1.248 7.666 0 9.668 0 11.5c0 1.832 1.248 3.834 2.985 5.323C4.762 18.345 7.235 19.5 10 19.5c2.764 0 5.238-1.154 7.015-2.676C18.752 15.335 20 13.333 20 11.5c0-1.833-1.248-3.836-2.985-5.324-.33-.283-.684-.552-1.06-.804l.67-.934A1 1 0 1 0 15 3.273L14.192 4.4a10.556 10.556 0 0 0-3.188-.85V1.5ZM10 7.5a4 4 0 1 0 0 8 4 4 0 0 0 0-8Z" fill="#C9C9C9"/></svg></svg>